<?xml version="1.0" encoding="UTF-8" standalone="no"?>
<!DOCTYPE svg PUBLIC "-//W3C//DTD SVG 1.1//EN" "http://www.w3.org/Graphics/SVG/1.1/DTD/svg11.dtd">
<svg width="100%" height="100%" viewBox="0 0 302 372" version="1.1" xmlns="http://www.w3.org/2000/svg" xmlns:xlink="http://www.w3.org/1999/xlink" xml:space="preserve" xmlns:serif="http://www.serif.com/" style="fill-rule:evenodd;clip-rule:evenodd;stroke-linejoin:round;stroke-miterlimit:2;">
    <g transform="matrix(1,0,0,1,-41.2608,-42.4516)">
        <path id="path52" d="M139.722,412.502C99.167,406.466 68.877,391.105 53.594,368.823C39.729,348.608 37.848,316.3 49.01,290.071C53.221,280.174 62.249,266.727 76.821,248.646C85.404,237.994 87.622,231.241 87.533,216.03C87.479,206.766 87.174,204.052 85.48,197.708C84.385,193.613 83.601,190.151 83.736,190.016C84.06,189.692 96.445,197.504 102.385,201.78C104.964,203.636 109.822,207.855 113.182,211.155C119.7,217.557 123.404,223.738 127.789,235.53L129.88,241.155L129.459,232.53C128.674,216.48 131.826,193.682 136.78,179.579C140.588,168.736 145.873,159.448 155.939,145.905C177.816,116.472 183.447,105.671 184.484,91.155C185.235,80.65 180.965,60.287 175.35,47.589C174.306,45.23 173.601,43.151 173.783,42.969C174.247,42.505 187.864,51.582 193.722,56.26C208.616,68.156 220.161,80.729 232.37,98.352C249.389,122.917 257.311,144.179 260.106,172.793L260.607,177.931L262.8,175.83C265.594,173.153 271.691,164.318 274.256,159.23C277.618,152.561 278.609,147.481 279.119,134.303L279.597,121.95L287.827,135.803C297.448,151.998 311.324,179.26 318.354,195.78C343.164,254.084 348.577,297.016 335.896,334.913C324.535,368.864 296.528,395.042 257.679,408.023C249.256,410.838 235.722,414.273 235.722,413.596C235.722,413.439 237.156,412.585 238.909,411.699C240.663,410.813 244.855,407.303 248.227,403.9C253.411,398.665 254.936,396.511 258.109,389.933C266.145,373.274 268.2,354.463 264.174,334.407C260.671,316.953 251.195,294.984 238.761,275.494L235.18,269.88L234.817,277.267C234.428,285.204 232.846,289.593 228.528,294.725C226.191,297.502 225.252,296.857 225.233,292.462C225.201,284.848 220.017,271.03 213.516,261.232C207.046,251.48 191.72,236.306 183.597,231.609C183.109,231.327 182.826,236.066 182.787,245.165C182.722,260.605 181.948,265.602 178.064,275.674C173.663,287.086 169.258,293.024 152.464,310.181C135.836,327.168 130.396,333.73 126.942,340.967C123.218,348.771 122.112,354.153 122.178,364.155C122.231,372.13 122.505,373.966 124.587,380.28C129.006,393.681 137.724,405.554 147.305,411.217C152.686,414.398 152.582,414.416 139.722,412.502Z" style="fill:white;fill-rule:nonzero;stroke:rgb(235,252,255);stroke-width:1px;"/>
    </g>
</svg>
